<svg xmlns="http://www.w3.org/2000/svg" viewBox="0 0 600 400">
<defs><linearGradient id="bg" x1="0" y1="0" x2="1" y2="1">
  <stop offset="0" stop-color="#1e3a52"/><stop offset="1" stop-color="#5a8eb0"/>
</linearGradient></defs>
<rect width="600" height="400" fill="url(#bg)"/>
<circle cx="300" cy="165" r="92" fill="#ffffff" opacity="0.12"/>
<circle cx="300" cy="165" r="74" fill="#ffffff" opacity="0.92"/>
<g transform="translate(300,165)"><path d="M0,-36 Q-14,-44 -26,-36 Q-40,-26 -34,-6 Q-30,8 -26,28 Q-23,42 -16,42 Q-9,42 -9,26 Q-9,12 0,12 Q9,12 9,26 Q9,42 16,42 Q23,42 26,28 Q30,8 34,-6 Q40,-26 26,-36 Q14,-44 0,-36 Z" fill="#1e3a52"/></g>
<text x="300" y="330" text-anchor="middle" fill="#ffffff" font-size="34" font-weight="700" font-family="'Cairo','Segoe UI',sans-serif" direction="rtl">عيادة الاسنان</text>
</svg>